{
  "accessors": [
    {
      "bufferView": 2,
      "componentType": 5126,
      "count": 65124,
      "max": [
        -0.008803962729871273,
        0.8267769813537598,
        1.0343799591064453
      ],
      "min": [
        -0.5388349890708923,
        -0.7676630020141602,
        -1.1759309768676758
      ],
      "type": "VEC3"
    },
    {
      "bufferView": 2,
      "byteOffset": 781488,
      "componentType": 5126,
      "count": 65124,
      "max": [
        0.999954104423523,
        0.9999994039535522,
        0.9999755024909973
      ],
      "min": [
        -0.999885618686676,
        -0.9994320273399353,
        -0.9999837875366211
      ],
      "type": "VEC3"
    },
    {
      "bufferView": 1,
      "componentType": 5126,
      "count": 65124,
      "max": [
        0.9979860186576843,
        0.9999539852142334
      ],
      "min": [
        0.0005339999916031957,
        1.4999999621068127e-05
      ],
      "type": "VEC2"
    },
    {
      "bufferView": 0,
      "componentType": 5125,
      "count": 359265,
      "type": "SCALAR"
    }
  ],
  "asset": {
    "extras": {
      "author": "Polycor Natural Stone (https://sketchfab.com/polycordesign)",
      "license": "CC-BY-4.0 (http://creativecommons.org/licenses/by/4.0/)",
      "source": "https://sketchfab.com/3d-models/granite-slab-eastern-graytm-e8526154ca984a0a90b4d517119b8f49",
      "title": "GRANITE SLAB - EASTERN GRAY™"
    },
    "generator": "Sketchfab-13.33.0",
    "version": "2.0"
  },
  "bufferViews": [
    {
      "buffer": 0,
      "byteLength": 1437060,
      "name": "floatBufferViews",
      "target": 34963
    },
    {
      "buffer": 0,
      "byteLength": 520992,
      "byteOffset": 1437060,
      "byteStride": 8,
      "name": "floatBufferViews",
      "target": 34962
    },
    {
      "buffer": 0,
      "byteLength": 1562976,
      "byteOffset": 1958052,
      "byteStride": 12,
      "name": "floatBufferViews",
      "target": 34962
    }
  ],
  "buffers": [
    {
      "byteLength": 3521028,
      "uri": "scene.bin"
    }
  ],
  "extensionsUsed": [
    "KHR_materials_unlit"
  ],
  "images": [
    {
      "uri": "textures/poly_0_baseColor.jpeg"
    }
  ],
  "materials": [
    {
      "doubleSided": true,
      "extensions": {
        "KHR_materials_unlit": {}
      },
      "name": "poly_0",
      "pbrMetallicRoughness": {
        "baseColorTexture": {
          "index": 0
        },
        "metallicFactor": 0.0
      }
    }
  ],
  "meshes": [
    {
      "name": "poly_0-material",
      "primitives": [
        {
          "attributes": {
            "NORMAL": 1,
            "POSITION": 0,
            "TEXCOORD_0": 2
          },
          "indices": 3,
          "material": 0,
          "mode": 4
        }
      ]
    }
  ],
  "nodes": [
    {
      "children": [
        1
      ],
      "matrix": [
        1.0,
        0.0,
        0.0,
        0.0,
        0.0,
        2.220446049250313e-16,
        -1.0,
        0.0,
        0.0,
        1.0,
        2.220446049250313e-16,
        0.0,
        0.0,
        0.0,
        0.0,
        1.0
      ],
      "name": "Sketchfab_model"
    },
    {
      "children": [
        2
      ],
      "name": "Collada visual scene group"
    },
    {
      "children": [
        3
      ],
      "matrix": [
        0.9999031,
        0.01391588,
        0.0,
        0.0,
        2.26718e-09,
        -1.62905e-07,
        1.0,
        0.0,
        0.01391588,
        -0.9999031,
        -1.62921e-07,
        0.0,
        0.2342509,
        0.0,
        0.7713138,
        1.0
      ],
      "name": "poly"
    },
    {
      "mesh": 0,
      "name": "poly_0-material"
    }
  ],
  "samplers": [
    {
      "magFilter": 9729,
      "minFilter": 9987,
      "wrapS": 10497,
      "wrapT": 10497
    }
  ],
  "scene": 0,
  "scenes": [
    {
      "name": "Sketchfab_Scene",
      "nodes": [
        0
      ]
    }
  ],
  "textures": [
    {
      "sampler": 0,
      "source": 0
    }
  ]
}
